{"glyphs":{":":{"x_min":0,"x_max":243,"ha":243,"o":"m 90 451 l 224 451 l 204 289 l 70 289 z m 55 162 l 189 162 l 169 0 l 35 0 z"},"$":{"x_min":0,"x_max":483,"ha":483,"o":"m 443 172 q 443 93 388 46 q 332 0 244 -7 l 238 -65 l 175 -65 l 181 -7 q 71 3 13 47 l 46 178 l 151 170 l 141 111 q 162 98 192 95 l 205 225 q 140 238 96 264 q 51 291 51 358 q 51 446 110 484 q 170 521 237 527 l 244 593 l 307 593 l 300 528 q 346 524 385 510 q 424 497 447 479 l 447 351 l 340 343 l 335 412 q 315 422 289 426 l 278 323 q 310 316 349 304 q 388 291 416 260 q 443 230 443 172 z m 189 381 q 189 355 217 340 l 226 423 q 189 411 189 381 z m 305 152 q 305 189 266 208 l 255 97 q 284 103 294 118 q 305 133 305 152 z"},"?":{"x_min":0,"x_max":470,"ha":470,"o":"m 151 456 l 51 467 l 88 620 q 146 644 198 652 q 250 659 282 659 q 368 659 420 624 q 472 588 472 523 q 472 468 440 436 q 408 405 366 386 q 325 366 293 350 q 261 333 261 309 q 261 284 298 284 l 289 205 q 121 185 121 289 q 121 340 152 366 q 183 392 223 408 q 263 423 294 441 q 325 459 325 494 q 325 542 255 542 q 238 542 214 538 q 190 535 173 527 z m 118 0 l 133 145 l 281 145 l 266 0 z"},"<":{"x_min":0,"x_max":386,"ha":386,"o":"m 308 14 l 22 257 l 27 301 l 364 549 l 351 427 l 153 282 l 321 136 z"},"'":{"x_min":0,"x_max":203,"ha":203,"o":"m 164 377 l 57 377 l 77 650 l 203 650 z"},"=":{"x_min":0,"x_max":532,"ha":532,"o":"m 49 347 l 59 435 l 507 435 l 497 347 z m 26 125 l 35 213 l 483 213 l 474 125 z"},"a":{"x_min":0,"x_max":522,"ha":522,"o":"m 492 451 q 479 410 470 371 q 460 332 455 291 l 431 98 l 489 98 l 480 25 l 450 0 l 315 0 l 311 92 q 290 50 254 20 q 218 -10 163 -10 q 89 -10 52 46 q 15 102 15 183 q 15 244 37 308 q 59 372 104 416 q 150 460 223 460 q 321 460 351 376 q 356 395 360 414 q 365 432 372 451 z m 243 362 q 195 362 172 312 q 149 261 149 198 q 149 88 213 88 q 254 88 283 127 q 312 166 321 210 l 325 244 q 331 300 304 331 q 278 362 243 362 z"},"L":{"x_min":0,"x_max":535,"ha":535,"o":"m 482 0 l 7 0 l 19 114 l 88 114 l 132 536 l 63 536 l 75 650 l 364 650 l 352 536 l 261 536 l 217 114 l 386 114 l 418 240 l 526 230 z"},"3":{"x_min":0,"x_max":523,"ha":523,"o":"m 155 328 l 55 339 l 92 492 q 151 516 206 524 q 260 531 293 531 q 375 531 428 496 q 482 461 482 384 q 482 334 454 291 q 426 248 356 219 l 355 215 q 472 189 472 68 q 472 -36 401 -88 q 330 -141 223 -141 q 117 -141 60 -92 q 4 -44 11 38 l 121 71 q 117 36 142 4 q 166 -27 224 -27 q 284 -27 308 8 q 331 42 331 77 q 331 124 296 143 q 261 162 191 165 l 200 253 q 268 253 297 274 q 326 296 332 320 q 338 344 338 350 q 338 417 261 417 q 244 417 219 414 q 194 410 178 402 z"},";":{"x_min":0,"x_max":245,"ha":245,"o":"m 62 285 l 79 448 l 229 448 l 212 285 z m -32 -85 l 52 149 l 176 149 l 92 -85 z"},"J":{"x_min":0,"x_max":465,"ha":465,"o":"m 179 650 l 475 650 l 463 536 l 406 536 l 369 185 q 358 87 301 38 q 244 -10 159 -10 q 79 -10 40 27 q 0 64 -15 113 l 82 184 q 94 140 116 127 q 137 114 160 114 q 198 114 217 134 q 236 154 239 184 l 276 536 l 167 536 z"},"V":{"x_min":0,"x_max":658,"ha":658,"o":"m 679 536 l 622 536 l 345 0 l 256 0 l 91 536 l 32 536 l 44 650 l 302 650 l 290 536 l 234 536 l 327 207 l 332 207 l 491 536 l 434 536 l 446 650 l 691 650 z"},"\"":{"x_min":0,"x_max":379,"ha":379,"o":"m 164 377 l 57 377 l 77 650 l 203 650 z m 340 377 l 233 377 l 253 650 l 379 650 z"},"7":{"x_min":0,"x_max":486,"ha":486,"o":"m 49 521 l 490 521 l 500 458 l 213 -130 l 83 -130 l 352 408 l 152 408 l 141 299 l 26 299 z"},"S":{"x_min":0,"x_max":538,"ha":538,"o":"m 500 204 q 500 100 432 45 q 363 -10 241 -10 q 174 -10 112 7 q 49 24 15 58 l 52 219 l 156 209 l 147 130 q 178 112 201 108 q 224 105 237 105 q 293 105 326 122 q 358 140 358 194 q 358 243 330 258 q 302 272 247 282 q 203 290 160 306 q 118 323 90 358 q 62 392 62 457 q 62 532 100 576 q 137 621 194 640 q 252 660 312 660 q 378 660 432 640 q 487 621 515 588 l 506 447 l 400 437 l 399 513 q 376 530 352 536 q 328 542 304 542 q 262 542 232 526 q 202 511 202 474 q 202 435 234 420 q 266 405 308 396 q 350 387 394 370 q 439 354 470 316 q 500 278 500 204 z"},"}":{"x_min":0,"x_max":294,"ha":294,"o":"m 177 271 q 116 278 92 304 q 68 331 68 359 q 68 392 96 442 q 125 492 154 546 q 182 599 182 645 q 182 699 126 699 l 63 699 l 72 786 l 135 786 q 221 786 254 745 q 287 704 287 655 q 287 598 258 539 q 230 480 202 430 q 173 380 173 352 q 173 318 207 308 q 241 299 263 299 l 282 299 l 276 242 l 257 242 q 234 242 194 232 q 155 221 155 181 q 155 142 182 67 q 209 -8 209 -81 q 209 -147 168 -197 q 128 -247 27 -247 l -36 -247 l -27 -160 l 36 -160 q 106 -160 106 -83 q 106 -42 92 6 q 77 53 62 96 q 48 140 48 171 q 48 202 77 232 q 106 263 177 271 z"},"Z":{"x_min":0,"x_max":566,"ha":566,"o":"m 505 0 l 1 0 l -2 69 l 364 535 l 364 536 l 194 536 l 165 435 l 54 445 l 95 650 l 559 650 l 560 589 l 192 116 l 192 114 l 405 114 l 438 234 l 549 224 z"},"x":{"x_min":0,"x_max":510,"ha":510,"o":"m 485 27 l 454 0 l 221 0 l 230 71 l 261 98 l 287 98 l 224 179 q 165 138 152 92 q 140 47 154 0 l 15 0 q -11 71 44 119 q 100 167 181 222 l 67 353 l 15 353 l 24 424 l 55 451 l 280 451 l 271 380 l 240 353 l 212 353 l 267 282 q 318 326 332 366 q 346 407 335 451 l 474 451 q 490 404 463 366 q 436 328 392 296 q 348 264 314 239 l 432 98 l 494 98 z"},")":{"x_min":0,"x_max":287,"ha":287,"o":"m 57 -183 l -55 -183 q 51 -62 105 63 q 159 188 159 323 q 159 423 130 526 q 100 630 40 718 l 154 718 q 212 626 238 525 q 265 424 265 327 q 265 194 215 68 q 165 -58 57 -183 z"},"&":{"x_min":0,"x_max":689,"ha":689,"o":"m 440 385 l 686 385 l 674 271 l 612 271 q 571 197 495 127 q 531 113 564 113 q 597 113 627 126 l 643 16 q 591 -10 530 -10 q 452 -10 373 40 q 330 17 286 4 q 243 -10 200 -10 q 129 -10 70 30 q 10 70 10 151 q 10 224 58 259 q 105 294 155 317 q 130 387 130 447 q 130 526 179 593 q 228 660 339 660 q 418 660 463 622 q 508 584 508 516 q 508 446 456 406 q 404 366 301 316 q 346 231 421 171 q 458 211 476 271 l 428 271 z m 377 511 q 377 528 368 545 q 360 562 329 562 q 286 562 273 529 q 260 496 260 465 q 260 422 275 378 q 333 413 355 446 q 377 478 377 511 z m 182 254 q 138 219 138 171 q 138 129 168 114 q 197 99 242 99 q 270 99 293 103 q 228 166 182 254 z"},"_":{"x_min":0,"x_max":492,"ha":492,"o":"m -1 -68 l 423 -68 l 414 -153 l -10 -153 z"},"v":{"x_min":0,"x_max":482,"ha":482,"o":"m 245 380 l 214 353 l 187 353 l 254 148 l 260 148 q 306 212 327 259 q 348 306 348 358 q 348 402 328 451 l 467 451 q 478 395 466 329 q 453 263 397 189 q 372 155 322 99 q 272 43 228 0 l 173 0 l 54 353 l 7 353 l 16 424 l 47 451 l 254 451 z"},"O":{"x_min":0,"x_max":685,"ha":685,"o":"m 381 660 q 518 660 594 572 q 669 484 669 360 q 669 260 623 176 q 577 92 496 41 q 414 -10 310 -10 q 170 -10 98 78 q 26 167 26 290 q 26 393 73 477 q 120 561 200 610 q 280 660 381 660 z m 330 108 q 431 108 480 183 q 529 258 529 350 q 529 442 485 492 q 441 542 367 542 q 273 542 220 471 q 166 400 166 302 q 166 228 202 168 q 239 108 330 108 z"},"(":{"x_min":0,"x_max":286,"ha":286,"o":"m 228 718 l 340 718 q 234 597 180 472 q 126 347 126 212 q 126 112 156 8 q 185 -95 245 -183 l 131 -183 q 73 -91 46 10 q 20 111 20 208 q 20 341 70 468 q 120 594 228 718 z"},"C":{"x_min":0,"x_max":617,"ha":617,"o":"m 559 69 q 524 34 452 12 q 381 -10 312 -10 q 176 -10 102 76 q 28 162 28 286 q 28 367 63 454 q 98 540 177 600 q 256 660 387 660 q 472 660 527 636 q 582 611 610 582 l 610 431 l 502 421 l 497 507 q 474 524 439 533 q 404 542 369 542 q 278 542 222 481 q 167 420 167 302 q 167 108 335 108 q 413 108 458 135 l 483 232 l 588 222 z"},"W":{"x_min":0,"x_max":951,"ha":951,"o":"m 966 536 l 915 536 l 688 0 l 597 0 l 494 420 l 489 420 l 305 0 l 212 0 l 86 536 l 32 536 l 44 650 l 292 650 l 280 536 l 223 536 l 283 222 l 289 222 l 433 536 l 384 536 l 396 650 l 645 650 l 633 536 l 588 536 l 665 216 l 671 216 l 786 536 l 720 536 l 732 650 l 978 650 z"},"A":{"x_min":0,"x_max":660,"ha":660,"o":"m -5 114 l 52 114 l 274 536 l 188 536 l 200 650 l 414 650 l 583 114 l 642 114 l 630 0 l 382 0 l 394 114 l 444 114 l 427 180 l 215 180 l 183 114 l 241 114 l 229 0 l -17 0 z m 351 459 l 262 276 l 403 276 l 357 459 z"},"f":{"x_min":0,"x_max":315,"ha":315,"o":"m 295 698 q 316 698 354 690 q 393 683 423 658 l 429 536 l 336 525 l 323 596 q 302 602 288 602 q 242 602 234 541 l 222 451 l 329 451 l 320 385 l 286 353 l 210 353 l 164 -24 q 158 -70 142 -116 q 125 -161 88 -192 q 52 -222 -15 -222 q -80 -222 -122 -186 q -163 -150 -163 -72 l -66 -43 q -66 -93 -50 -108 q -35 -124 -20 -124 q 12 -124 24 -88 q 36 -53 40 -22 l 86 353 l 8 353 l 14 420 l 48 451 l 98 451 l 109 533 q 119 613 176 656 q 234 698 295 698 z"},"Q":{"x_min":0,"x_max":696,"ha":696,"o":"m 382 660 q 518 660 594 572 q 670 484 670 360 q 670 207 569 101 l 652 10 l 565 -70 l 475 29 q 399 -10 311 -10 q 172 -10 100 78 q 27 167 27 290 q 27 393 74 477 q 121 561 202 610 q 282 660 382 660 z m 301 221 l 388 301 l 487 191 q 530 256 530 350 q 530 442 486 492 q 442 542 368 542 q 274 542 220 471 q 167 400 167 302 q 167 228 204 168 q 240 108 331 108 q 367 108 394 118 z"},"w":{"x_min":0,"x_max":734,"ha":734,"o":"m 511 148 l 516 148 q 562 212 582 258 q 601 305 601 354 q 601 402 581 451 l 720 451 q 731 390 717 325 q 703 260 650 189 q 624 155 576 99 q 528 43 484 0 l 432 0 l 366 260 l 360 260 l 214 0 l 148 0 l 52 353 l 8 353 l 17 424 l 48 451 l 251 451 l 242 380 l 211 353 l 180 353 l 215 175 l 221 175 l 365 451 l 439 451 z"},"-":{"x_min":0,"x_max":315,"ha":315,"o":"m 42 288 l 276 288 l 265 180 l 31 180 z"},"E":{"x_min":0,"x_max":569,"ha":569,"o":"m 497 0 l 8 0 l 20 114 l 89 114 l 133 536 l 64 536 l 76 650 l 559 650 l 559 460 l 449 450 l 439 536 l 261 536 l 245 383 l 517 383 l 505 270 l 233 270 l 217 114 l 400 114 l 429 200 l 537 190 z"},"s":{"x_min":0,"x_max":440,"ha":440,"o":"m 198 88 q 230 88 250 99 q 270 110 270 131 q 270 160 234 170 q 199 179 156 191 q 112 203 76 228 q 39 254 39 315 q 39 395 101 428 q 163 460 234 460 q 271 460 319 451 q 367 442 407 419 l 406 304 l 307 293 l 305 349 q 268 362 234 362 q 214 362 191 353 q 168 344 168 322 q 168 301 194 293 q 220 285 263 274 q 308 262 354 236 q 400 210 400 139 q 400 62 342 26 q 284 -10 204 -10 q 161 -10 102 0 q 43 11 1 34 l 32 160 l 129 149 l 124 97 q 141 91 164 90 q 188 88 198 88 z"},">":{"x_min":0,"x_max":388,"ha":388,"o":"m 362 257 l 24 14 l 37 136 l 236 282 l 67 427 l 80 549 l 366 301 z"},"l":{"x_min":0,"x_max":257,"ha":257,"o":"m 47 661 l 78 688 l 236 688 l 164 98 l 222 98 l 213 25 l 183 0 l 28 0 l 100 590 l 38 590 z"},"8":{"x_min":0,"x_max":528,"ha":528,"o":"m 227 -10 q 132 -10 74 30 q 16 69 16 149 q 16 221 60 258 q 104 295 162 319 q 122 344 93 380 q 64 416 64 471 q 64 554 132 607 q 199 660 305 660 q 394 660 448 620 q 503 580 503 509 q 503 448 466 414 q 428 380 376 357 q 422 331 456 292 q 491 252 491 188 q 491 95 416 42 q 340 -10 227 -10 z m 207 489 q 207 455 240 433 q 273 411 317 389 q 340 406 354 428 q 369 451 369 483 q 369 525 346 538 q 324 552 295 552 q 207 552 207 489 z m 248 98 q 296 98 322 120 q 349 142 349 173 q 349 213 308 238 q 268 262 218 288 q 190 270 172 246 q 153 221 153 184 q 153 98 248 98 z"},"\\":{"x_min":0,"x_max":448,"ha":448,"o":"m 22 688 l 140 688 l 418 0 l 301 0 z"},"e":{"x_min":0,"x_max":444,"ha":444,"o":"m 227 88 q 278 88 293 116 q 308 145 313 162 l 414 142 q 404 83 350 36 q 297 -10 208 -10 q 128 -10 71 38 q 14 86 14 192 q 14 300 78 380 q 142 460 258 460 q 330 460 376 426 q 422 392 422 336 q 422 286 387 250 q 352 215 261 196 q 209 185 149 179 q 152 136 169 112 q 186 88 227 88 z m 196 261 q 256 272 274 290 q 292 308 292 328 q 292 353 276 363 q 260 373 241 373 q 199 373 178 336 q 158 300 152 254 q 164 256 175 258 q 186 259 196 261 z"},"b":{"x_min":0,"x_max":514,"ha":514,"o":"m 46 661 l 77 688 l 230 688 l 191 369 q 212 406 246 433 q 279 460 329 460 q 411 460 450 402 q 489 345 489 269 q 489 204 466 140 q 442 75 394 32 q 346 -10 271 -10 q 177 -10 148 68 l 130 0 l 6 0 q 17 35 26 70 q 35 105 39 139 l 94 590 l 37 590 z m 255 88 q 302 88 328 142 q 354 196 354 254 q 354 298 338 330 q 321 362 283 362 q 236 362 209 320 q 182 279 174 232 l 169 192 q 168 144 191 116 q 214 88 255 88 z"},"%":{"x_min":0,"x_max":724,"ha":724,"o":"m 178 240 q 108 240 73 277 q 38 314 38 370 q 38 436 84 484 q 130 531 210 531 q 280 531 314 494 q 348 456 348 401 q 348 335 303 288 q 258 240 178 240 z m 648 521 l 417 259 l 198 0 l 67 0 l 327 285 l 517 521 z m 185 322 q 210 322 228 339 q 246 356 246 394 q 246 449 201 449 q 177 449 158 432 q 139 416 139 377 q 139 345 152 334 q 166 322 185 322 z m 513 -10 q 443 -10 408 27 q 373 64 373 120 q 373 187 420 234 q 466 281 545 281 q 616 281 650 244 q 684 206 684 150 q 684 85 639 38 q 594 -10 513 -10 z m 521 72 q 546 72 564 89 q 582 106 582 144 q 582 199 537 199 q 513 199 494 182 q 475 166 475 128 q 475 96 488 84 q 502 72 521 72 z"},"m":{"x_min":0,"x_max":803,"ha":803,"o":"m 61 451 l 200 451 l 204 364 q 227 407 263 434 q 299 460 350 460 q 399 460 432 436 q 465 411 472 360 q 495 404 532 432 q 568 460 620 460 q 681 460 716 422 q 752 384 742 304 l 717 98 l 775 98 l 766 25 l 736 0 l 582 0 l 613 254 q 620 312 606 337 q 592 362 555 362 q 510 362 491 332 q 472 302 466 255 l 435 0 l 312 0 l 343 254 q 350 312 336 337 q 322 362 285 362 q 240 362 221 332 q 202 302 196 255 l 165 0 l 41 0 l 84 353 l 21 353 l 30 424 z"},"#":{"x_min":0,"x_max":563,"ha":563,"o":"m 526 521 l 496 420 l 548 420 l 537 322 l 467 322 l 431 199 l 495 199 l 485 101 l 402 101 l 373 0 l 265 0 l 294 101 l 167 101 l 138 0 l 31 0 l 60 101 l 12 101 l 22 199 l 89 199 l 125 322 l 65 322 l 76 420 l 154 420 l 184 521 l 291 521 l 261 420 l 388 420 l 418 521 z m 196 199 l 323 199 l 359 322 l 232 322 z"},",":{"x_min":0,"x_max":221,"ha":221,"o":"m -34 -85 l 50 149 l 174 149 l 90 -85 z"},"n":{"x_min":0,"x_max":541,"ha":541,"o":"m 61 451 l 200 451 l 205 365 q 228 408 264 434 q 300 460 350 460 q 411 460 452 422 q 492 384 482 304 l 457 98 l 515 98 l 506 25 l 476 0 l 322 0 l 353 254 q 360 312 344 337 q 329 362 292 362 q 250 362 227 336 q 204 310 197 267 l 165 0 l 41 0 l 84 353 l 21 353 l 30 424 z"},"h":{"x_min":0,"x_max":522,"ha":522,"o":"m 43 661 l 74 688 l 228 688 l 190 375 q 212 413 247 436 q 282 460 329 460 q 390 460 430 422 q 471 384 461 304 l 436 98 l 494 98 l 485 25 l 455 0 l 301 0 l 332 254 q 340 312 324 337 q 308 362 271 362 q 228 362 206 335 q 184 308 176 264 l 144 0 l 20 0 l 92 590 l 34 590 z"},"z":{"x_min":0,"x_max":450,"ha":450,"o":"m 388 0 l 7 0 l -3 68 l 270 353 l 143 353 l 117 283 l 27 293 l 58 451 l 419 451 l 434 383 l 162 98 l 305 98 l 334 168 l 432 158 z"},"B":{"x_min":0,"x_max":600,"ha":600,"o":"m 402 650 q 482 650 530 612 q 577 575 577 511 q 577 458 544 415 q 510 372 449 362 l 449 358 q 508 348 538 309 q 568 270 568 211 q 568 129 511 64 q 454 0 338 0 l 9 0 l 21 114 l 88 114 l 132 536 l 65 536 l 77 650 z m 331 384 q 392 384 414 411 q 435 438 435 470 q 435 510 412 523 q 390 536 356 536 l 261 536 l 245 384 z m 316 114 q 430 114 430 206 q 430 280 342 280 l 234 280 l 217 114 z"},"K":{"x_min":0,"x_max":648,"ha":648,"o":"m 350 114 l 407 114 l 310 274 l 233 274 l 217 114 l 269 114 l 257 0 l 9 0 l 21 114 l 88 114 l 132 536 l 65 536 l 77 650 l 328 650 l 316 536 l 261 536 l 245 383 l 324 383 l 450 536 l 396 536 l 408 650 l 667 650 l 655 536 l 586 536 l 416 341 l 558 114 l 622 114 l 610 0 l 338 0 z"},"R":{"x_min":0,"x_max":614,"ha":614,"o":"m 21 114 l 88 114 l 132 536 l 65 536 l 77 650 l 359 650 q 581 650 581 470 q 581 395 542 350 q 504 306 439 284 l 509 114 l 585 114 l 573 0 l 413 0 l 315 248 l 231 248 l 217 114 l 284 114 l 272 0 l 9 0 z m 303 354 q 384 354 413 382 q 442 411 442 458 q 442 503 417 520 q 392 536 324 536 l 261 536 l 242 354 z"},"T":{"x_min":0,"x_max":626,"ha":626,"o":"m 626 430 l 514 420 l 506 536 l 404 536 l 360 114 l 463 114 l 451 0 l 122 0 l 134 114 l 232 114 l 276 536 l 175 536 l 143 420 l 33 430 l 75 650 l 630 650 z"},"P":{"x_min":0,"x_max":578,"ha":578,"o":"m 21 114 l 88 114 l 132 536 l 65 536 l 77 650 l 363 650 q 470 650 525 596 q 580 543 580 452 q 580 334 502 276 q 423 218 324 218 l 228 218 l 217 114 l 313 114 l 301 0 l 9 0 z m 312 331 q 386 331 414 364 q 441 398 441 446 q 441 490 418 513 q 395 536 335 536 l 261 536 l 240 331 z"},"|":{"x_min":0,"x_max":238,"ha":238,"o":"m 220 730 l 135 -80 l 28 -80 l 113 730 z"},"t":{"x_min":0,"x_max":360,"ha":360,"o":"m 24 420 l 58 451 l 87 451 l 99 548 l 138 588 l 228 588 l 211 451 l 346 451 l 337 385 l 303 353 l 199 353 l 174 147 q 167 88 204 88 q 220 88 236 102 q 251 117 264 169 l 351 140 q 332 62 295 26 q 258 -10 191 -10 q 119 -10 80 28 q 40 65 48 135 l 75 353 l 15 353 z"},"M":{"x_min":0,"x_max":865,"ha":865,"o":"m 23 114 l 90 114 l 134 536 l 57 536 l 69 650 l 253 650 l 433 247 l 437 247 l 687 650 l 873 650 l 861 536 l 785 536 l 741 114 l 808 114 l 796 0 l 545 0 l 557 114 l 612 114 l 638 362 l 634 362 l 438 53 l 384 53 l 241 374 l 237 374 l 210 114 l 269 114 l 257 0 l 11 0 z"},"g":{"x_min":0,"x_max":526,"ha":526,"o":"m 375 451 l 538 451 l 529 378 l 499 353 l 467 353 l 426 23 q 414 -73 360 -148 q 306 -222 181 -222 q 117 -222 60 -190 q 4 -159 -13 -81 l 75 -31 q 108 -115 189 -115 q 285 -115 302 23 l 309 85 q 286 46 249 18 q 212 -10 159 -10 q 85 -10 50 46 q 15 102 15 180 q 15 243 38 308 q 61 372 108 416 q 154 460 227 460 q 324 460 353 380 z m 247 362 q 199 362 174 312 q 149 262 149 194 q 149 147 163 118 q 177 88 210 88 q 250 88 282 126 q 314 164 324 207 l 330 255 q 332 307 306 334 q 280 362 247 362 z"},"j":{"x_min":0,"x_max":254,"ha":254,"o":"m 110 531 l 124 665 l 244 665 l 230 531 z m 24 424 l 55 451 l 224 451 l 170 16 q 157 -86 120 -154 q 83 -222 12 -222 q -45 -222 -88 -192 l -83 -109 q -33 -128 0 -110 q 34 -92 47 16 l 88 353 l 15 353 z"},"i":{"x_min":0,"x_max":274,"ha":274,"o":"m 111 531 l 125 665 l 245 665 l 231 531 z m 32 424 l 63 451 l 222 451 l 179 98 l 236 98 l 227 25 l 197 0 l 43 0 l 86 353 l 23 353 z"},"y":{"x_min":0,"x_max":480,"ha":480,"o":"m 254 148 l 260 148 q 306 212 327 259 q 348 306 348 358 q 348 402 328 451 l 467 451 q 478 395 466 329 q 453 263 397 189 q 378 164 346 127 q 314 90 279 52 l 253 -115 l 316 -115 l 307 -186 l 276 -213 l 45 -213 l 54 -142 l 85 -115 l 129 -115 l 155 53 l 54 353 l 7 353 l 16 424 l 47 451 l 254 451 l 245 380 l 214 353 l 187 353 z"},"@":{"x_min":0,"x_max":879,"ha":879,"o":"m 641 291 l 625 140 l 622 116 q 617 76 654 76 q 696 76 718 131 q 741 186 741 273 q 741 434 669 496 q 597 558 483 558 q 323 558 226 461 q 128 364 128 195 q 128 82 170 16 q 212 -50 279 -78 q 346 -106 421 -106 q 466 -106 520 -95 q 574 -84 621 -52 l 654 -130 q 604 -162 540 -182 q 477 -202 404 -202 q 244 -202 132 -100 q 21 2 21 183 q 21 314 82 421 q 143 528 248 591 q 352 654 481 654 q 576 654 660 616 q 745 578 797 501 q 849 424 849 306 q 849 236 826 163 q 804 90 754 40 q 704 -10 622 -10 q 566 -10 530 15 q 493 40 492 83 q 471 44 436 17 q 401 -10 349 -10 q 275 -10 238 46 q 201 102 201 183 q 201 244 223 308 q 245 372 290 416 q 336 460 409 460 q 507 460 537 376 q 542 395 546 414 q 551 432 558 451 l 678 451 q 667 415 656 374 q 646 333 641 291 z m 429 362 q 381 362 358 312 q 335 261 335 198 q 335 88 399 88 q 440 88 469 127 q 498 166 507 210 l 511 244 q 517 300 490 331 q 464 362 429 362 z"},".":{"x_min":0,"x_max":224,"ha":224,"o":"m 10 0 l 27 163 l 177 163 l 160 0 z"},"p":{"x_min":0,"x_max":532,"ha":532,"o":"m 200 451 l 204 359 q 224 400 259 430 q 294 460 347 460 q 429 460 468 402 q 507 345 507 269 q 507 204 484 140 q 460 75 412 32 q 364 -10 289 -10 q 204 -10 171 55 l 150 -115 l 237 -115 l 228 -186 l 197 -213 l -44 -213 l -35 -142 l -4 -115 l 26 -115 l 84 353 l 21 353 l 30 424 l 61 451 z m 273 88 q 320 88 346 142 q 372 196 372 254 q 372 298 356 330 q 339 362 301 362 q 255 362 228 324 q 202 285 193 239 l 187 188 q 187 88 273 88 z"},"X":{"x_min":0,"x_max":640,"ha":640,"o":"m 604 0 l 349 0 l 361 114 l 405 114 l 312 247 l 199 114 l 251 114 l 239 0 l -22 0 l -10 114 l 57 114 l 255 332 l 106 536 l 48 536 l 60 650 l 311 650 l 299 536 l 257 536 l 343 420 l 445 536 l 400 536 l 412 650 l 657 650 l 645 536 l 588 536 l 400 335 l 560 114 l 616 114 z"},"*":{"x_min":0,"x_max":406,"ha":406,"o":"m 404 532 l 295 479 l 393 426 l 338 351 l 254 413 l 250 309 l 163 309 l 181 414 l 83 351 l 44 426 l 153 479 l 55 532 l 109 607 l 196 542 l 199 650 l 286 650 l 267 543 l 366 607 z"},"Y":{"x_min":0,"x_max":620,"ha":620,"o":"m 638 536 l 584 536 l 373 254 l 359 114 l 460 114 l 448 0 l 122 0 l 134 114 l 230 114 l 244 256 l 86 536 l 31 536 l 43 650 l 301 650 l 289 536 l 237 536 l 325 372 l 331 372 l 451 536 l 392 536 l 404 650 l 650 650 z"},"c":{"x_min":0,"x_max":439,"ha":439,"o":"m 243 362 q 202 362 176 320 q 149 279 149 200 q 149 149 164 118 q 180 88 223 88 q 260 88 278 114 q 297 139 310 188 l 411 168 q 398 104 349 47 q 300 -10 202 -10 q 114 -10 64 44 q 15 98 15 195 q 15 259 38 320 q 62 381 114 420 q 165 460 248 460 q 282 460 326 452 q 370 443 406 422 l 411 285 l 308 274 l 302 354 q 285 360 272 361 q 258 362 243 362 z"},"!":{"x_min":0,"x_max":256,"ha":256,"o":"m 242 650 l 169 232 l 77 232 l 91 650 z m 30 0 l 45 145 l 193 145 l 178 0 z"},"/":{"x_min":0,"x_max":390,"ha":390,"o":"m 404 688 l 125 0 l 8 0 l 286 688 z"},"[":{"x_min":0,"x_max":293,"ha":293,"o":"m 10 -248 l 119 785 l 338 785 l 328 698 l 216 698 l 126 -161 l 238 -161 l 229 -248 z"},"6":{"x_min":0,"x_max":527,"ha":527,"o":"m 492 238 q 492 133 426 62 q 360 -10 247 -10 q 137 -10 84 63 q 32 136 32 268 q 32 356 58 447 q 85 538 149 599 q 213 660 325 660 q 380 660 432 640 q 484 620 512 570 l 429 493 q 395 546 317 546 q 252 546 219 496 q 186 445 175 339 q 196 370 235 395 q 274 420 332 420 q 420 420 456 364 q 492 308 492 238 z m 356 224 q 356 265 338 288 q 321 311 277 311 q 230 311 204 286 q 177 260 170 221 q 169 163 187 136 q 205 108 253 108 q 308 108 332 141 q 356 174 356 224 z"},"r":{"x_min":0,"x_max":357,"ha":357,"o":"m 72 451 l 201 451 l 208 327 q 223 374 250 417 q 276 460 317 460 q 345 460 366 442 l 346 309 q 318 324 294 324 q 226 324 210 254 l 188 98 l 274 98 l 265 27 l 234 0 l -7 0 l 2 71 l 33 98 l 63 98 l 94 353 l 32 353 l 41 424 z"},"2":{"x_min":0,"x_max":525,"ha":525,"o":"m 154 328 l 54 339 l 92 492 q 150 516 204 524 q 258 531 293 531 q 400 531 441 490 q 482 448 482 392 q 482 322 434 272 q 386 223 315 186 q 244 149 175 114 l 369 114 l 380 187 l 483 177 l 461 0 l 16 0 l 15 106 q 100 157 174 200 q 247 242 292 282 q 338 322 338 363 q 338 393 314 405 q 291 417 258 417 q 241 417 217 414 q 193 410 177 402 z"},"{":{"x_min":0,"x_max":294,"ha":294,"o":"m 116 267 q 177 260 201 234 q 225 207 225 179 q 225 146 196 96 q 168 46 140 -8 q 111 -61 111 -107 q 111 -161 167 -161 l 230 -161 l 221 -248 l 158 -248 q 72 -248 39 -207 q 6 -166 6 -117 q 6 -60 34 -1 q 63 58 92 108 q 120 158 120 186 q 120 220 86 230 q 52 239 30 239 l 11 239 l 17 296 l 36 296 q 58 296 98 306 q 138 317 138 357 q 138 396 111 471 q 84 546 84 619 q 84 685 125 735 q 166 785 266 785 l 329 785 l 320 698 l 257 698 q 187 698 187 621 q 187 580 202 532 q 216 485 230 442 q 245 398 245 367 q 245 336 216 306 q 187 275 116 267 z"},"9":{"x_min":0,"x_max":527,"ha":527,"o":"m 32 282 q 32 387 98 458 q 164 530 277 530 q 387 530 440 457 q 492 384 492 252 q 492 164 466 73 q 439 -18 375 -79 q 311 -140 199 -140 q 144 -140 92 -120 q 40 -100 12 -50 l 95 27 q 129 -26 207 -26 q 272 -26 305 24 q 338 75 349 181 q 328 150 289 125 q 250 100 192 100 q 104 100 68 156 q 32 212 32 282 z m 168 296 q 168 255 186 232 q 203 209 247 209 q 294 209 320 234 q 347 260 354 299 q 355 357 337 384 q 319 412 271 412 q 216 412 192 379 q 168 346 168 296 z"}," ":{"x_min":0,"x_max":179,"ha":179,"o":""},"I":{"x_min":0,"x_max":339,"ha":339,"o":"m 21 114 l 88 114 l 132 536 l 65 536 l 77 650 l 340 650 l 328 536 l 260 536 l 216 114 l 284 114 l 272 0 l 9 0 z"},"H":{"x_min":0,"x_max":732,"ha":732,"o":"m 21 114 l 88 114 l 132 536 l 65 536 l 77 650 l 340 650 l 328 536 l 260 536 l 244 386 l 508 386 l 524 536 l 457 536 l 469 650 l 732 650 l 720 536 l 653 536 l 609 114 l 676 114 l 664 0 l 401 0 l 413 114 l 480 114 l 496 273 l 232 273 l 216 114 l 284 114 l 272 0 l 9 0 z"},"4":{"x_min":0,"x_max":558,"ha":558,"o":"m 400 -130 l 269 -130 l 287 41 l 5 41 l 4 152 l 235 521 l 468 521 l 429 152 l 527 152 l 505 41 l 418 41 z m 298 152 l 325 407 l 279 407 l 126 152 z"},"~":{"x_min":0,"x_max":560,"ha":560,"o":"m 363 176 q 322 176 292 192 q 261 209 232 226 q 203 242 169 242 q 151 242 130 231 q 109 220 80 180 l 15 228 q 90 360 185 360 q 220 360 247 344 q 274 327 302 310 q 330 294 372 294 q 400 294 421 308 q 442 321 471 363 l 545 310 q 511 253 466 214 q 420 176 363 176 z"},"D":{"x_min":0,"x_max":673,"ha":673,"o":"m 9 0 l 21 114 l 89 114 l 133 536 l 65 536 l 77 650 l 363 650 q 510 650 582 573 q 655 496 655 363 q 655 205 560 102 q 464 0 303 0 z m 305 114 q 407 114 462 174 q 517 234 517 350 q 517 536 349 536 l 261 536 l 217 114 z"},"^":{"x_min":0,"x_max":462,"ha":462,"o":"m 227 650 l 306 650 l 444 367 l 328 367 l 254 525 l 155 367 l 39 367 z"},"0":{"x_min":0,"x_max":566,"ha":566,"o":"m 26 222 q 26 351 100 440 q 174 529 310 529 q 422 529 478 464 q 535 398 535 283 q 535 138 456 64 q 376 -10 254 -10 q 153 -10 90 44 q 26 99 26 222 z m 169 236 q 169 170 188 139 q 208 108 264 108 q 316 108 356 143 q 395 178 395 285 q 395 353 374 382 q 352 411 296 411 q 234 411 202 373 q 169 335 169 236 z"},"F":{"x_min":0,"x_max":544,"ha":544,"o":"m 550 449 l 440 439 l 430 536 l 260 536 l 241 354 l 503 354 l 491 241 l 229 241 l 216 114 l 318 114 l 306 0 l 9 0 l 21 114 l 88 114 l 132 536 l 64 536 l 76 650 l 550 650 z"},"`":{"x_min":0,"x_max":431,"ha":431,"o":"m 404 508 l 200 600 l 259 700 l 433 557 z"},"k":{"x_min":0,"x_max":470,"ha":470,"o":"m 43 661 l 74 688 l 228 688 l 177 272 l 232 272 q 302 350 315 451 l 439 451 q 440 391 403 333 q 366 275 305 233 l 378 98 l 447 98 l 438 25 l 408 0 l 303 0 l 203 188 l 167 188 l 144 0 l 20 0 l 92 590 l 34 590 z"},"u":{"x_min":0,"x_max":543,"ha":543,"o":"m 511 98 l 502 27 l 471 0 l 332 0 l 327 87 q 304 44 268 18 q 232 -9 182 -9 q 121 -9 80 29 q 40 67 50 147 l 75 353 l 17 353 l 26 426 l 56 451 l 210 451 l 179 197 q 172 138 188 114 q 203 89 240 89 q 285 89 308 119 q 330 149 336 196 l 336 195 l 367 451 l 491 451 l 448 98 z"},"]":{"x_min":0,"x_max":292,"ha":292,"o":"m 281 785 l 172 -248 l -47 -248 l -37 -161 l 75 -161 l 165 698 l 53 698 l 62 785 z"},"U":{"x_min":0,"x_max":690,"ha":690,"o":"m 454 650 l 703 650 l 691 536 l 635 536 l 607 269 q 600 200 570 136 q 541 72 480 31 q 420 -10 320 -10 q 178 -10 124 72 q 69 153 80 258 l 109 536 l 54 536 l 66 650 l 323 650 l 311 536 l 238 536 l 209 262 q 202 195 228 152 q 255 108 330 108 q 404 108 442 152 q 480 196 487 269 l 515 536 l 442 536 z"},"o":{"x_min":0,"x_max":483,"ha":483,"o":"m 14 194 q 14 297 74 378 q 134 460 259 460 q 362 460 410 401 q 458 342 458 251 q 458 134 390 62 q 321 -10 210 -10 q 118 -10 66 42 q 14 95 14 194 z m 149 205 q 149 151 164 120 q 178 88 222 88 q 279 88 302 135 q 325 182 325 247 q 325 362 246 362 q 149 362 149 205 z"},"N":{"x_min":0,"x_max":732,"ha":732,"o":"m 23 114 l 91 114 l 135 536 l 57 536 l 69 650 l 239 650 l 514 264 l 517 264 l 545 536 l 455 536 l 467 650 l 745 650 l 733 536 l 665 536 l 609 0 l 537 -1 l 245 412 l 242 412 l 211 114 l 297 114 l 285 0 l 11 0 z"},"+":{"x_min":0,"x_max":393,"ha":393,"o":"m 22 237 l 31 325 l 161 325 l 175 455 l 261 455 l 247 325 l 371 325 l 362 237 l 238 237 l 224 108 l 138 108 l 152 237 z"},"G":{"x_min":0,"x_max":656,"ha":656,"o":"m 631 246 l 599 246 l 573 0 l 472 0 l 467 64 q 436 30 392 10 q 347 -10 287 -10 q 164 -10 95 73 q 26 156 26 287 q 26 384 66 469 q 106 554 185 607 q 264 660 382 660 q 459 660 522 637 q 586 614 614 582 l 617 441 l 510 431 l 500 507 q 478 524 439 533 q 400 542 368 542 q 280 542 223 478 q 166 414 166 298 q 166 198 209 153 q 252 108 322 108 q 445 108 467 240 l 468 246 l 343 246 l 355 359 l 643 359 z"},"q":{"x_min":0,"x_max":510,"ha":510,"o":"m 456 -186 l 425 -213 l 184 -213 l 193 -142 l 224 -115 l 284 -115 l 309 86 q 286 46 248 18 q 210 -10 158 -10 q 84 -10 49 46 q 14 102 14 180 q 14 243 37 308 q 60 372 107 416 q 154 460 226 460 q 324 460 354 376 q 358 395 363 414 q 368 432 375 451 l 495 451 q 482 410 472 371 q 463 332 458 291 l 408 -115 l 465 -115 z m 246 362 q 198 362 173 312 q 148 262 148 194 q 148 147 162 118 q 176 88 209 88 q 250 88 283 128 q 316 169 325 213 l 330 258 q 331 308 305 335 q 279 362 246 362 z"},"d":{"x_min":0,"x_max":522,"ha":522,"o":"m 297 661 l 328 688 l 506 688 l 434 98 l 492 98 l 483 25 l 453 0 l 318 0 l 316 99 q 294 55 254 22 q 215 -10 158 -10 q 84 -10 49 46 q 14 102 14 180 q 14 243 37 308 q 60 372 107 416 q 154 460 226 460 q 312 460 346 394 l 370 590 l 288 590 z m 246 362 q 198 362 173 312 q 148 262 148 194 q 148 147 162 118 q 176 88 209 88 q 249 88 280 126 q 312 163 323 206 l 329 259 q 330 308 304 335 q 278 362 246 362 z"},"1":{"x_min":0,"x_max":394,"ha":394,"o":"m 25 114 l 133 114 l 164 407 l 56 407 l 68 521 l 307 521 l 295 407 l 264 114 l 362 114 l 350 0 l 13 0 z"},"5":{"x_min":0,"x_max":511,"ha":511,"o":"m 467 86 q 467 -33 392 -87 q 318 -141 212 -141 q 109 -141 52 -94 q -4 -48 4 38 l 114 71 q 110 36 133 4 q 156 -27 214 -27 q 276 -27 300 8 q 324 42 324 80 q 324 137 282 154 q 240 172 185 172 q 161 172 137 170 q 113 168 91 167 l 53 208 l 86 521 l 478 521 l 477 338 l 365 328 l 355 407 l 195 407 l 182 280 q 191 281 200 281 q 210 281 219 281 q 322 281 394 242 q 467 204 467 86 z"}}}
